<svg width="79" height="49" viewBox="0 0 79 49" fill="none" xmlns="http://www.w3.org/2000/svg">
<path d="M21.3953 3.55823H20.0743C19.9962 3.17826 19.8595 2.84445 19.6642 2.55681C19.4724 2.26917 19.238 2.02769 18.961 1.83238C18.6876 1.63351 18.384 1.48436 18.0502 1.38493C17.7164 1.2855 17.3683 1.23578 17.0061 1.23578C16.3456 1.23578 15.7472 1.40269 15.211 1.73649C14.6784 2.0703 14.254 2.56213 13.9379 3.21199C13.6254 3.86185 13.4692 4.65908 13.4692 5.60368C13.4692 6.54828 13.6254 7.34551 13.9379 7.99537C14.254 8.64523 14.6784 9.13706 15.211 9.47087C15.7472 9.80468 16.3456 9.97158 17.0061 9.97158C17.3683 9.97158 17.7164 9.92186 18.0502 9.82243C18.384 9.723 18.6876 9.57563 18.961 9.38032C19.238 9.18145 19.4724 8.9382 19.6642 8.65056C19.8595 8.35936 19.9962 8.02556 20.0743 7.64914H21.3953C21.2959 8.20666 21.1148 8.7056 20.852 9.14594C20.5892 9.58628 20.2625 9.96093 19.8719 10.2699C19.4813 10.5753 19.0427 10.8079 18.5562 10.9677C18.0732 11.1275 17.5566 11.2074 17.0061 11.2074C16.0757 11.2074 15.2483 10.9801 14.5239 10.5256C13.7994 10.071 13.2295 9.4247 12.814 8.58664C12.3985 7.74857 12.1908 6.75425 12.1908 5.60368C12.1908 4.45311 12.3985 3.4588 12.814 2.62073C13.2295 1.78266 13.7994 1.13635 14.5239 0.681807C15.2483 0.227261 16.0757 -1.15037e-05 17.0061 -1.15037e-05C17.5566 -1.15037e-05 18.0732 0.0798891 18.5562 0.23969C19.0427 0.399492 19.4813 0.633867 19.8719 0.942815C20.2625 1.24821 20.5892 1.62108 20.852 2.06142C21.1148 2.49821 21.2959 2.99715 21.3953 3.55823ZM28.5158 7.71306V2.87641H29.7729V11.0582H28.5158V9.67328H28.4306C28.2388 10.0888 27.9405 10.4421 27.5357 10.7333C27.1309 11.0209 26.6195 11.1648 26.0016 11.1648C25.4902 11.1648 25.0357 11.0529 24.638 10.8292C24.2402 10.6019 23.9277 10.261 23.7005 9.80645C23.4732 9.34836 23.3596 8.7713 23.3596 8.07527V2.87641H24.6167V7.99005C24.6167 8.58664 24.7836 9.06249 25.1174 9.4176C25.4547 9.77272 25.8844 9.95027 26.4064 9.95027C26.7189 9.95027 27.0368 9.87037 27.3599 9.71057C27.6866 9.55077 27.96 9.30574 28.1802 8.97549C28.4039 8.64523 28.5158 8.22442 28.5158 7.71306ZM37.8708 4.7088L36.7416 5.0284C36.6705 4.84019 36.5658 4.6573 36.4273 4.47975C36.2923 4.29864 36.1077 4.14949 35.8733 4.0323C35.6389 3.91512 35.3389 3.85652 34.9731 3.85652C34.4724 3.85652 34.0551 3.97193 33.7213 4.20276C33.3911 4.43003 33.2259 4.71945 33.2259 5.07101C33.2259 5.38351 33.3396 5.63032 33.5669 5.81142C33.7941 5.99253 34.1492 6.14345 34.6322 6.26419L35.8467 6.56249C36.5782 6.74005 37.1233 7.01171 37.482 7.37747C37.8406 7.73969 38.02 8.20666 38.02 8.7784C38.02 9.24715 37.885 9.66618 37.6151 10.0355C37.3488 10.4048 36.9759 10.696 36.4965 10.9091C36.0171 11.1221 35.4596 11.2287 34.824 11.2287C33.9894 11.2287 33.2987 11.0476 32.7519 10.6854C32.205 10.3231 31.8588 9.79402 31.7132 9.098L32.9063 8.7997C33.02 9.24005 33.2348 9.5703 33.5509 9.79047C33.8705 10.0106 34.2877 10.1207 34.8026 10.1207C35.3886 10.1207 35.8538 9.99644 36.1982 9.74786C36.5463 9.49573 36.7203 9.19388 36.7203 8.84232C36.7203 8.55823 36.6208 8.3203 36.422 8.12854C36.2231 7.93323 35.9177 7.78763 35.5058 7.69175L34.1421 7.37215C33.3928 7.19459 32.8424 6.91938 32.4909 6.54651C32.1428 6.17009 31.9688 5.69956 31.9688 5.13493C31.9688 4.67328 32.0985 4.2649 32.3577 3.90979C32.6205 3.55468 32.9774 3.27591 33.4284 3.0735C33.8829 2.87108 34.3978 2.76988 34.9731 2.76988C35.7828 2.76988 36.4184 2.94743 36.8801 3.30255C37.3453 3.65766 37.6755 4.12641 37.8708 4.7088ZM43.4705 2.87641V3.94175H39.2305V2.87641H43.4705ZM40.4663 0.916182H41.7234V8.71448C41.7234 9.06959 41.7749 9.33593 41.8778 9.51348C41.9844 9.68749 42.1193 9.80468 42.2827 9.86505C42.4496 9.92186 42.6254 9.95027 42.81 9.95027C42.9485 9.95027 43.0621 9.94317 43.1509 9.92897C43.2397 9.91121 43.3107 9.89701 43.364 9.88635L43.6197 11.0156C43.5344 11.0476 43.4155 11.0795 43.2628 11.1115C43.1101 11.147 42.9165 11.1648 42.6822 11.1648C42.3271 11.1648 41.979 11.0884 41.6381 10.9357C41.3008 10.783 41.0202 10.5504 40.7965 10.2379C40.5763 9.92542 40.4663 9.53124 40.4663 9.05539V0.916182ZM48.5975 11.2287C47.8588 11.2287 47.2108 11.0529 46.6532 10.7013C46.0993 10.3498 45.666 9.85794 45.3535 9.22584C45.0446 8.59374 44.8901 7.8551 44.8901 7.00993C44.8901 6.15766 45.0446 5.4137 45.3535 4.77804C45.666 4.14239 46.0993 3.64878 46.6532 3.29722C47.2108 2.94566 47.8588 2.76988 48.5975 2.76988C49.3361 2.76988 49.9824 2.94566 50.5364 3.29722C51.0939 3.64878 51.5272 4.14239 51.8361 4.77804C52.1486 5.4137 52.3049 6.15766 52.3049 7.00993C52.3049 7.8551 52.1486 8.59374 51.8361 9.22584C51.5272 9.85794 51.0939 10.3498 50.5364 10.7013C49.9824 11.0529 49.3361 11.2287 48.5975 11.2287ZM48.5975 10.0994C49.1586 10.0994 49.6202 9.9556 49.9824 9.66796C50.3446 9.38032 50.6127 9.00212 50.7868 8.53337C50.9608 8.06462 51.0478 7.55681 51.0478 7.00993C51.0478 6.46306 50.9608 5.95347 50.7868 5.48117C50.6127 5.00887 50.3446 4.62712 49.9824 4.33593C49.6202 4.04473 49.1586 3.89914 48.5975 3.89914C48.0364 3.89914 47.5748 4.04473 47.2125 4.33593C46.8503 4.62712 46.5822 5.00887 46.4082 5.48117C46.2342 5.95347 46.1472 6.46306 46.1472 7.00993C46.1472 7.55681 46.2342 8.06462 46.4082 8.53337C46.5822 9.00212 46.8503 9.38032 47.2125 9.66796C47.5748 9.9556 48.0364 10.0994 48.5975 10.0994ZM54.2238 11.0582V2.87641H55.4383V4.15482H55.5448C55.7153 3.71803 55.9905 3.3789 56.3705 3.13742C56.7504 2.89239 57.2068 2.76988 57.7394 2.76988C58.2792 2.76988 58.7284 2.89239 59.0871 3.13742C59.4493 3.3789 59.7316 3.71803 59.934 4.15482H60.0193C60.2288 3.73223 60.5431 3.39665 60.9621 3.14807C61.3811 2.89594 61.8836 2.76988 62.4695 2.76988C63.2011 2.76988 63.7994 2.99892 64.2646 3.45702C64.7298 3.91157 64.9624 4.62002 64.9624 5.58237V11.0582H63.7053V5.58237C63.7053 4.97868 63.5402 4.54722 63.21 4.28799C62.8797 4.02875 62.4909 3.89914 62.0434 3.89914C61.4681 3.89914 61.0225 4.07314 60.7064 4.42115C60.3904 4.76561 60.2323 5.2024 60.2323 5.73152V11.0582H58.9539V5.45453C58.9539 4.98934 58.803 4.61469 58.5012 4.3306C58.1993 4.04296 57.8105 3.89914 57.3346 3.89914C57.0079 3.89914 56.7025 3.98614 56.4184 4.16014C56.1379 4.33415 55.9106 4.57563 55.7366 4.88458C55.5661 5.18997 55.4809 5.54331 55.4809 5.94459V11.0582H54.2238Z" fill="black" fill-opacity="0.6"/>
<path d="M3.77046 31.946V42.8551H2.44944V31.946H3.77046ZM7.50582 37.9332V42.8551H6.24871V34.6733H7.4632V35.9517H7.56974C7.7615 35.5362 8.05269 35.2024 8.44332 34.9503C8.83394 34.6946 9.3382 34.5668 9.9561 34.5668C10.5101 34.5668 10.9948 34.6804 11.4103 34.9077C11.8258 35.1314 12.1489 35.4723 12.3797 35.9304C12.6106 36.3849 12.726 36.9602 12.726 37.6562V42.8551H11.4689V37.7415C11.4689 37.0987 11.302 36.598 10.9682 36.2393C10.6344 35.8771 10.1763 35.696 9.59388 35.696C9.1926 35.696 8.83394 35.783 8.51789 35.957C8.20539 36.131 7.95858 36.3849 7.77748 36.7187C7.59637 37.0525 7.50582 37.4574 7.50582 37.9332ZM18.5814 34.6733V35.7386H14.3413V34.6733H18.5814ZM15.5771 32.7131H16.8342V40.5114C16.8342 40.8665 16.8857 41.1328 16.9887 41.3104C17.0952 41.4844 17.2302 41.6016 17.3935 41.6619C17.5604 41.7187 17.7362 41.7471 17.9209 41.7471C18.0593 41.7471 18.173 41.74 18.2618 41.7258C18.3505 41.7081 18.4216 41.6939 18.4748 41.6832L18.7305 42.8125C18.6453 42.8444 18.5263 42.8764 18.3736 42.9084C18.2209 42.9439 18.0274 42.9616 17.793 42.9616C17.4379 42.9616 17.0899 42.8853 16.749 42.7326C16.4116 42.5799 16.1311 42.3473 15.9074 42.0348C15.6872 41.7223 15.5771 41.3281 15.5771 40.8523V32.7131ZM23.8149 43.0256C23.0265 43.0256 22.3465 42.8516 21.7747 42.5035C21.2065 42.152 20.768 41.6619 20.459 41.0334C20.1536 40.4013 20.0009 39.6662 20.0009 38.8281C20.0009 37.99 20.1536 37.2514 20.459 36.6122C20.768 35.9694 21.1977 35.4687 21.7481 35.1101C22.3021 34.7479 22.9484 34.5668 23.687 34.5668C24.1131 34.5668 24.534 34.6378 24.9494 34.7798C25.3649 34.9219 25.7431 35.1527 26.084 35.4723C26.4249 35.7883 26.6966 36.2074 26.899 36.7294C27.1014 37.2514 27.2026 37.8942 27.2026 38.6577V39.1903H20.8958V38.1037H25.9242C25.9242 37.642 25.8319 37.2301 25.6472 36.8679C25.4661 36.5057 25.2069 36.2198 24.8695 36.0103C24.5357 35.8008 24.1416 35.696 23.687 35.696C23.1863 35.696 22.7531 35.8203 22.3873 36.0689C22.0251 36.3139 21.7463 36.6335 21.551 37.0277C21.3557 37.4219 21.258 37.8444 21.258 38.2954V39.0199C21.258 39.6378 21.3646 40.1616 21.5776 40.5913C21.7943 41.0174 22.0943 41.3423 22.4778 41.566C22.8614 41.7862 23.307 41.8963 23.8149 41.8963C24.1451 41.8963 24.4434 41.8501 24.7097 41.7578C24.9796 41.6619 25.2122 41.5199 25.4075 41.3317C25.6028 41.1399 25.7538 40.902 25.8603 40.6179L27.0748 40.9588C26.947 41.3707 26.7321 41.7329 26.4303 42.0454C26.1284 42.3544 25.7555 42.5959 25.3117 42.7699C24.8678 42.9403 24.3688 43.0256 23.8149 43.0256ZM32.4175 46.0937C31.8102 46.0937 31.2882 46.0156 30.8514 45.8594C30.4146 45.7067 30.0506 45.5043 29.7595 45.2521C29.4718 45.0035 29.2428 44.7372 29.0723 44.4531L30.0737 43.75C30.1874 43.8991 30.3312 44.0696 30.5052 44.2614C30.6792 44.4567 30.9171 44.6253 31.219 44.7674C31.5244 44.913 31.9239 44.9858 32.4175 44.9858C33.078 44.9858 33.6231 44.826 34.0528 44.5064C34.4825 44.1868 34.6973 43.6861 34.6973 43.0043V41.3423H34.5908C34.4984 41.4915 34.3671 41.6761 34.1966 41.8963C34.0297 42.1129 33.7882 42.3065 33.4722 42.4769C33.1597 42.6438 32.7371 42.7273 32.2044 42.7273C31.5439 42.7273 30.9509 42.571 30.4253 42.2585C29.9033 41.946 29.4896 41.4915 29.1842 40.8949C28.8823 40.2983 28.7314 39.5739 28.7314 38.7216C28.7314 37.8835 28.8788 37.1538 29.1735 36.5323C29.4683 35.9073 29.8784 35.4243 30.404 35.0834C30.9296 34.739 31.5368 34.5668 32.2257 34.5668C32.7584 34.5668 33.181 34.6555 33.4935 34.8331C33.8095 35.0071 34.051 35.206 34.2179 35.4297C34.3884 35.6498 34.5198 35.831 34.6121 35.973H34.7399V34.6733H35.9544V43.0895C35.9544 43.7926 35.7946 44.3643 35.475 44.8047C35.159 45.2486 34.7328 45.5735 34.1966 45.7795C33.6639 45.989 33.0709 46.0937 32.4175 46.0937ZM32.3749 41.598C32.8791 41.598 33.3053 41.4826 33.6533 41.2518C34.0013 41.0209 34.2658 40.6889 34.447 40.2557C34.6281 39.8224 34.7186 39.304 34.7186 38.7003C34.7186 38.1108 34.6298 37.5905 34.4523 37.1395C34.2747 36.6886 34.0119 36.3352 33.6639 36.0795C33.3159 35.8239 32.8862 35.696 32.3749 35.696C31.8422 35.696 31.3983 35.831 31.0432 36.1008C30.6916 36.3707 30.4271 36.7329 30.2495 37.1875C30.0755 37.642 29.9885 38.1463 29.9885 38.7003C29.9885 39.2685 30.0773 39.7709 30.2548 40.2077C30.4359 40.641 30.7023 40.9819 31.0538 41.2305C31.409 41.4755 31.8493 41.598 32.3749 41.598ZM38.2555 42.8551V34.6733H39.47V35.9091H39.5553C39.7044 35.5043 39.9743 35.1758 40.3649 34.9236C40.7555 34.6715 41.1959 34.5454 41.6859 34.5454C41.7783 34.5454 41.8937 34.5472 42.0322 34.5508C42.1707 34.5543 42.2754 34.5596 42.3465 34.5668V35.8452C42.3038 35.8345 42.2062 35.8185 42.0535 35.7972C41.9043 35.7724 41.7463 35.7599 41.5794 35.7599C41.1817 35.7599 40.8266 35.8434 40.5141 36.0103C40.2051 36.1736 39.9601 36.4009 39.779 36.6921C39.6014 36.9797 39.5127 37.3082 39.5127 37.6775V42.8551H38.2555ZM46.2443 43.0469C45.7258 43.0469 45.2553 42.9492 44.8327 42.7539C44.4101 42.555 44.0745 42.2692 43.8259 41.8963C43.5774 41.5199 43.4531 41.0653 43.4531 40.5327C43.4531 40.0639 43.5454 39.6839 43.7301 39.3927C43.9147 39.098 44.1615 38.8672 44.4705 38.7003C44.7794 38.5334 45.1203 38.4091 45.4932 38.3274C45.8696 38.2422 46.2478 38.1747 46.6278 38.125C47.125 38.0611 47.528 38.0131 47.837 37.9812C48.1495 37.9457 48.3767 37.8871 48.5188 37.8054C48.6644 37.7237 48.7372 37.5817 48.7372 37.3792V37.3366C48.7372 36.8111 48.5934 36.4027 48.3057 36.1115C48.0216 35.8203 47.5902 35.6747 47.0113 35.6747C46.4112 35.6747 45.9407 35.8061 45.5997 36.0689C45.2588 36.3317 45.0191 36.6122 44.8806 36.9105L43.6875 36.4844C43.9005 35.9872 44.1846 35.6001 44.5397 35.3231C44.8984 35.0426 45.289 34.8473 45.7116 34.7372C46.1377 34.6236 46.5568 34.5668 46.9687 34.5668C47.2315 34.5668 47.5333 34.5987 47.8742 34.6626C48.2187 34.723 48.5507 34.8491 48.8703 35.0408C49.1935 35.2326 49.4616 35.522 49.6747 35.9091C49.8877 36.2962 49.9943 36.8146 49.9943 37.4645V42.8551H48.7372V41.7471H48.6733C48.588 41.9247 48.446 42.1147 48.2471 42.3171C48.0483 42.5195 47.7837 42.6918 47.4534 42.8338C47.1232 42.9758 46.7201 43.0469 46.2443 43.0469ZM46.436 41.9176C46.9332 41.9176 47.3522 41.8199 47.6931 41.6246C48.0376 41.4293 48.2968 41.1772 48.4708 40.8682C48.6484 40.5593 48.7372 40.2344 48.7372 39.8935V38.7429C48.6839 38.8068 48.5667 38.8654 48.3856 38.9187C48.2081 38.9684 48.0021 39.0128 47.7677 39.0518C47.5369 39.0873 47.3114 39.1193 47.0912 39.1477C46.8746 39.1726 46.6988 39.1939 46.5639 39.2116C46.2372 39.2543 45.9318 39.3235 45.6477 39.4194C45.3671 39.5117 45.1399 39.652 44.9659 39.8402C44.7954 40.0248 44.7102 40.277 44.7102 40.5966C44.7102 41.0334 44.8718 41.3636 45.1949 41.5873C45.5216 41.8075 45.9353 41.9176 46.436 41.9176ZM55.847 34.6733V35.7386H51.6069V34.6733H55.847ZM52.8427 32.7131H54.0998V40.5114C54.0998 40.8665 54.1513 41.1328 54.2543 41.3104C54.3608 41.4844 54.4958 41.6016 54.6591 41.6619C54.826 41.7187 55.0018 41.7471 55.1865 41.7471C55.325 41.7471 55.4386 41.74 55.5274 41.7258C55.6162 41.7081 55.6872 41.6939 55.7405 41.6832L55.9961 42.8125C55.9109 42.8444 55.7919 42.8764 55.6392 42.9084C55.4866 42.9439 55.293 42.9616 55.0586 42.9616C54.7035 42.9616 54.3555 42.8853 54.0146 42.7326C53.6772 42.5799 53.3967 42.3473 53.173 42.0348C52.9528 41.7223 52.8427 41.3281 52.8427 40.8523V32.7131ZM57.738 42.8551V34.6733H58.9951V42.8551H57.738ZM58.3772 33.3096C58.1321 33.3096 57.9209 33.2262 57.7433 33.0593C57.5693 32.8924 57.4823 32.6918 57.4823 32.4574C57.4823 32.223 57.5693 32.0224 57.7433 31.8555C57.9209 31.6886 58.1321 31.6051 58.3772 31.6051C58.6222 31.6051 58.8317 31.6886 59.0057 31.8555C59.1833 32.0224 59.2721 32.223 59.2721 32.4574C59.2721 32.6918 59.1833 32.8924 59.0057 33.0593C58.8317 33.2262 58.6222 33.3096 58.3772 33.3096ZM64.6214 43.0256C63.8828 43.0256 63.2347 42.8498 62.6772 42.4982C62.1232 42.1467 61.6899 41.6548 61.3774 41.0227C61.0685 40.3906 60.914 39.652 60.914 38.8068C60.914 37.9545 61.0685 37.2106 61.3774 36.5749C61.6899 35.9393 62.1232 35.4457 62.6772 35.0941C63.2347 34.7425 63.8828 34.5668 64.6214 34.5668C65.36 34.5668 66.0063 34.7425 66.5603 35.0941C67.1179 35.4457 67.5511 35.9393 67.86 36.5749C68.1725 37.2106 68.3288 37.9545 68.3288 38.8068C68.3288 39.652 68.1725 40.3906 67.86 41.0227C67.5511 41.6548 67.1179 42.1467 66.5603 42.4982C66.0063 42.8498 65.36 43.0256 64.6214 43.0256ZM64.6214 41.8963C65.1825 41.8963 65.6441 41.7525 66.0063 41.4648C66.3686 41.1772 66.6367 40.799 66.8107 40.3302C66.9847 39.8615 67.0717 39.3537 67.0717 38.8068C67.0717 38.2599 66.9847 37.7503 66.8107 37.278C66.6367 36.8057 66.3686 36.424 66.0063 36.1328C65.6441 35.8416 65.1825 35.696 64.6214 35.696C64.0603 35.696 63.5987 35.8416 63.2365 36.1328C62.8742 36.424 62.6061 36.8057 62.4321 37.278C62.2581 37.7503 62.1711 38.2599 62.1711 38.8068C62.1711 39.3537 62.2581 39.8615 62.4321 40.3302C62.6061 40.799 62.8742 41.1772 63.2365 41.4648C63.5987 41.7525 64.0603 41.8963 64.6214 41.8963ZM71.5048 37.9332V42.8551H70.2477V34.6733H71.4622V35.9517H71.5688C71.7605 35.5362 72.0517 35.2024 72.4423 34.9503C72.833 34.6946 73.3372 34.5668 73.9551 34.5668C74.5091 34.5668 74.9938 34.6804 75.4093 34.9077C75.8248 35.1314 76.1479 35.4723 76.3788 35.9304C76.6096 36.3849 76.725 36.9602 76.725 37.6562V42.8551H75.4679V37.7415C75.4679 37.0987 75.301 36.598 74.9672 36.2393C74.6334 35.8771 74.1753 35.696 73.5929 35.696C73.1916 35.696 72.833 35.783 72.5169 35.957C72.2044 36.131 71.9576 36.3849 71.7765 36.7187C71.5954 37.0525 71.5048 37.4574 71.5048 37.9332Z" fill="black" fill-opacity="0.6"/>
</svg>
