<svg width="20" height="20" viewBox="0 0 20 20" fill="none" xmlns="http://www.w3.org/2000/svg">
<g clip-path="url(#clip0_1315_1912)">
<path fill-rule="evenodd" clip-rule="evenodd" d="M4.16667 2.5H15.8333C16.7538 2.5 17.5 3.24619 17.5 4.16667V15.8333C17.5 16.7538 16.7538 17.5 15.8333 17.5H4.16667C3.24619 17.5 2.5 16.7538 2.5 15.8333V4.16667C2.5 3.24619 3.24619 2.5 4.16667 2.5ZM6.66667 15C6.89678 15 7.08333 14.8134 7.08333 14.5833V8.75C7.08333 8.51992 6.89678 8.33333 6.66667 8.33333H5.41667C5.18655 8.33333 5 8.51992 5 8.75V14.5833C5 14.8134 5.18655 15 5.41667 15H6.66667ZM6.04167 7.5C5.35131 7.5 4.79167 6.94036 4.79167 6.25C4.79167 5.55964 5.35131 5 6.04167 5C6.73202 5 7.29167 5.55964 7.29167 6.25C7.29167 6.94036 6.73202 7.5 6.04167 7.5ZM14.5833 15C14.8134 15 15 14.8134 15 14.5833V10.75C15.0271 9.42567 14.048 8.29543 12.7333 8.13333C11.8142 8.04938 10.9236 8.47867 10.4167 9.25V8.75C10.4167 8.51992 10.2301 8.33333 10 8.33333H8.75C8.51992 8.33333 8.33333 8.51992 8.33333 8.75V14.5833C8.33333 14.8134 8.51992 15 8.75 15H10C10.2301 15 10.4167 14.8134 10.4167 14.5833V11.4583C10.4167 10.768 10.9763 10.2083 11.6667 10.2083C12.357 10.2083 12.9167 10.768 12.9167 11.4583V14.5833C12.9167 14.8134 13.1032 15 13.3333 15H14.5833Z" fill="white" fill-opacity="0.65"/>
</g>
<defs>
<clipPath id="clip0_1315_1912">
<rect width="20" height="20" fill="white"/>
</clipPath>
</defs>
</svg>
