<svg width="20" height="20" viewBox="0 0 20 20" fill="none" xmlns="http://www.w3.org/2000/svg">
<g clip-path="url(#clip0_1315_1904)">
<path d="M17.9935 6.00234C17.8985 5.65018 17.713 5.32901 17.4554 5.07082C17.1978 4.81262 16.8771 4.62639 16.5251 4.53068C15.2201 4.17234 9.9993 4.16651 9.9993 4.16651C9.9993 4.16651 4.7793 4.16068 3.47346 4.50318C3.12174 4.6033 2.80165 4.79216 2.54394 5.05162C2.28622 5.31109 2.09954 5.63244 2.0018 5.98484C1.65763 7.28984 1.6543 9.99651 1.6543 9.99651C1.6543 9.99651 1.65096 12.7165 1.99263 14.0082C2.1843 14.7223 2.7468 15.2865 3.4618 15.479C4.78013 15.8373 9.9868 15.8432 9.9868 15.8432C9.9868 15.8432 15.2076 15.849 16.5126 15.5073C16.8647 15.4118 17.1858 15.226 17.444 14.9683C17.7023 14.7107 17.8888 14.39 17.9851 14.0382C18.3301 12.734 18.3326 10.0282 18.3326 10.0282C18.3326 10.0282 18.3493 7.30734 17.9935 6.00234ZM8.3293 12.504L8.33347 7.50401L12.6726 10.0082L8.3293 12.504Z" fill="white" fill-opacity="0.65"/>
</g>
<defs>
<clipPath id="clip0_1315_1904">
<rect width="20" height="20" fill="white"/>
</clipPath>
</defs>
</svg>
